<svg width="258" height="194" viewBox="0 0 258 194" fill="none" xmlns="http://www.w3.org/2000/svg">
<circle cx="119.785" cy="95.7845" r="76.7845" fill="url(#paint0_linear_17_86)"/>
<circle cx="186.882" cy="54.8497" r="2.5957" stroke="#7C89FF" stroke-width="4"/>
<circle cx="137.107" cy="169.448" r="2.5957" stroke="#7C89FF" stroke-width="4"/>
<g filter="url(#filter0_f_17_86)">
<path d="M64.2158 101.186L65.5185 104.707L69.039 106.01L65.5185 107.312L64.2158 110.833L62.9131 107.312L59.3927 106.01L62.9131 104.707L64.2158 101.186Z" fill="#7C89FF"/>
</g>
<path d="M186.755 122.794L188.691 128.027L193.924 129.963L188.691 131.9L186.755 137.133L184.818 131.9L179.586 129.963L184.818 128.027L186.755 122.794Z" fill="#7C89FF"/>
<g filter="url(#filter1_f_17_86)">
<path d="M86.7464 24.4019L89.08 30.7083L95.3863 33.0418L89.08 35.3754L86.7464 41.6817L84.4128 35.3754L78.1065 33.0418L84.4128 30.7083L86.7464 24.4019Z" fill="#7C89FF"/>
</g>
<path d="M96.201 81.9501V133.634L103.561 129.108L110.921 133.634L118.281 129.108L125.64 133.634L133.001 129.108L140.36 133.634L147.719 129.108L155.08 133.634V70.2343C155.08 66.0291 151.715 62.6196 147.562 62.6196H88.685" fill="url(#paint1_linear_17_86)"/>
<path d="M81.168 101.023H96.201V69.5568C96.201 65.7257 93.136 62.6206 89.354 62.6206H88.014C84.233 62.6206 81.167 65.7257 81.167 69.5568V101.023H81.168Z" fill="url(#paint2_linear_17_86)"/>
<path d="M155.082 108.724C155.445 108.724 155.793 108.577 156.05 108.317C156.306 108.058 156.45 107.705 156.45 107.338V70.2343C156.45 65.2708 152.465 61.2334 147.566 61.2334H88.685C83.786 61.2334 79.8 65.2718 79.8 70.2343V92.3241C79.7997 92.6913 79.9437 93.0435 80.2002 93.3035C80.4567 93.5634 80.8048 93.7097 81.168 93.7103C81.5312 93.7097 81.8793 93.5634 82.1358 93.3035C82.3923 93.0435 82.5363 92.6913 82.536 92.3241V70.2343C82.536 66.7996 85.294 64.0059 88.684 64.0059C92.074 64.0059 94.832 66.8006 94.832 70.2343V99.6354H82.537V97.3958C82.5373 97.0286 82.3933 96.6763 82.1368 96.4163C81.8803 96.1564 81.5322 96.0101 81.169 96.0095C80.8056 96.0104 80.4574 96.1569 80.2008 96.4169C79.9441 96.677 79.8 97.0294 79.8 97.3968V101.023C79.7997 101.39 79.9437 101.742 80.2002 102.002C80.4567 102.262 80.8048 102.408 81.168 102.409H94.833V133.634C94.8332 133.879 94.8978 134.12 95.0202 134.332C95.1427 134.544 95.3186 134.719 95.53 134.84C95.7414 134.96 95.9806 135.022 96.2233 135.018C96.4659 135.015 96.7032 134.946 96.911 134.819L103.561 130.73L110.211 134.819C110.647 135.087 111.194 135.087 111.631 134.819L118.281 130.73L124.931 134.819C125.367 135.087 125.914 135.087 126.351 134.819L133.001 130.73L139.651 134.819C140.087 135.087 140.633 135.087 141.071 134.819L147.721 130.73L154.37 134.819C154.577 134.947 154.815 135.017 155.058 135.021C155.301 135.024 155.541 134.963 155.752 134.841C155.963 134.72 156.139 134.545 156.262 134.333C156.384 134.121 156.448 133.88 156.448 133.634V112.411C156.448 111.645 155.836 111.025 155.08 111.025C154.324 111.025 153.712 111.645 153.712 112.411V131.172L148.43 127.924C148.216 127.792 147.971 127.723 147.72 127.723C147.47 127.723 147.224 127.792 147.01 127.924L140.361 132.013L133.711 127.924C133.497 127.792 133.252 127.723 133.001 127.723C132.751 127.723 132.505 127.792 132.291 127.924L125.641 132.013L118.992 127.924C118.778 127.792 118.533 127.723 118.282 127.723C118.031 127.723 117.786 127.792 117.572 127.924L110.921 132.013L104.271 127.924C104.057 127.792 103.812 127.722 103.562 127.722C103.311 127.722 103.066 127.792 102.852 127.924L97.57 131.172V70.2343C97.57 67.8188 96.624 65.6236 95.09 64.0059H147.567C150.957 64.0059 153.714 66.8006 153.714 70.2343V107.338C153.714 107.705 153.858 108.058 154.114 108.317C154.371 108.577 154.719 108.724 155.082 108.724Z" fill="#7C89FF"/>
<rect x="104.553" y="78.9415" width="14.5532" height="3.87234" rx="1.93617" fill="white"/>
<rect x="121.787" y="78.9415" width="22.5957" height="3.87234" rx="1.93617" fill="white"/>
<rect x="104.553" y="88.2351" width="23.3617" height="3.87234" rx="1.93617" fill="url(#paint3_linear_17_86)"/>
<rect x="104.553" y="106.048" width="15.3191" height="3.87234" rx="1.93617" fill="url(#paint4_linear_17_86)"/>
<rect x="104.553" y="97.1415" width="37.9149" height="3.87234" rx="1.93617" fill="url(#paint5_linear_17_86)"/>
<g filter="url(#filter2_d_17_86)">
<path d="M213.573 86.8608C212.661 84.9311 211.358 83.1994 209.698 81.7142C208.046 80.2343 206.121 79.0729 203.98 78.2621C201.769 77.4247 199.42 77 197 77C194.58 77 192.232 77.4247 190.02 78.2621C187.879 79.0729 185.955 80.2353 184.302 81.7142C182.643 83.1994 181.339 84.9311 180.427 86.8608C179.486 88.8407 178.998 91.0022 179 93.1905C179 97.7319 181.102 102.028 184.795 105.092C183.619 106.616 181.921 107.998 179.397 109.496C179.244 109.587 179.125 109.726 179.058 109.89C178.992 110.055 178.982 110.236 179.03 110.407C179.078 110.577 179.18 110.728 179.323 110.835C179.465 110.942 179.639 111 179.818 111C182.309 111 184.599 110.755 186.625 110.271C188.352 109.859 189.894 109.273 191.215 108.526C193.089 109.095 195.039 109.384 197 109.381C199.42 109.381 201.769 108.956 203.98 108.119C206.121 107.309 208.046 106.146 209.698 104.667C211.358 103.182 212.661 101.45 213.573 99.5202C214.513 97.5396 215 95.3785 215 93.1905C215 91.0025 214.513 88.8413 213.573 86.8608H213.573Z" fill="url(#paint6_linear_17_86)"/>
</g>
<path d="M202.468 88.4891C203.019 89.0402 203.02 89.9342 202.469 90.4854L198.975 93.9788L202.468 97.4715C203.019 98.0226 203.02 98.9166 202.469 99.4679C201.917 100.019 201.023 100.019 200.472 99.4679L196.979 95.9751L193.486 99.4679C192.935 100.019 192.04 100.019 191.489 99.4679C190.938 98.9166 190.939 98.0226 191.49 97.4715L194.982 93.9788L191.489 90.4854C190.938 89.9342 190.939 89.0402 191.49 88.4891C192.041 87.9382 192.934 87.9382 193.485 88.4891L196.979 91.9825L200.472 88.4891C201.023 87.9382 201.917 87.9382 202.468 88.4891Z" fill="white"/>
<defs>
<filter id="filter0_f_17_86" x="55.3927" y="97.1865" width="17.6463" height="17.6463" filterUnits="userSpaceOnUse" color-interpolation-filters="sRGB">
<feFlood flood-opacity="0" result="BackgroundImageFix"/>
<feBlend mode="normal" in="SourceGraphic" in2="BackgroundImageFix" result="shape"/>
<feGaussianBlur stdDeviation="2" result="effect1_foregroundBlur_17_86"/>
</filter>
<filter id="filter1_f_17_86" x="74.1065" y="20.4019" width="25.2798" height="25.2798" filterUnits="userSpaceOnUse" color-interpolation-filters="sRGB">
<feFlood flood-opacity="0" result="BackgroundImageFix"/>
<feBlend mode="normal" in="SourceGraphic" in2="BackgroundImageFix" result="shape"/>
<feGaussianBlur stdDeviation="2" result="effect1_foregroundBlur_17_86"/>
</filter>
<filter id="filter2_d_17_86" x="159" y="67" width="76" height="74" filterUnits="userSpaceOnUse" color-interpolation-filters="sRGB">
<feFlood flood-opacity="0" result="BackgroundImageFix"/>
<feColorMatrix in="SourceAlpha" type="matrix" values="0 0 0 0 0 0 0 0 0 0 0 0 0 0 0 0 0 0 127 0" result="hardAlpha"/>
<feOffset dy="10"/>
<feGaussianBlur stdDeviation="10"/>
<feComposite in2="hardAlpha" operator="out"/>
<feColorMatrix type="matrix" values="0 0 0 0 0.568627 0 0 0 0 0.227451 0 0 0 0 0.937255 0 0 0 0.39 0"/>
<feBlend mode="normal" in2="BackgroundImageFix" result="effect1_dropShadow_17_86"/>
<feBlend mode="normal" in="SourceGraphic" in2="effect1_dropShadow_17_86" result="shape"/>
</filter>
<linearGradient id="paint0_linear_17_86" x1="119.785" y1="19" x2="119.785" y2="172.569" gradientUnits="userSpaceOnUse">
<stop stop-color="white" stop-opacity="0"/>
<stop offset="1" stop-color="#C0C7FF"/>
</linearGradient>
<linearGradient id="paint1_linear_17_86" x1="121.883" y1="62.6196" x2="121.883" y2="133.634" gradientUnits="userSpaceOnUse">
<stop stop-color="#DEE1FF"/>
<stop offset="0.808917" stop-color="#7C89FF"/>
</linearGradient>
<linearGradient id="paint2_linear_17_86" x1="88.684" y1="62.6206" x2="88.684" y2="101.023" gradientUnits="userSpaceOnUse">
<stop stop-color="#5D6CF6"/>
<stop offset="1" stop-color="#B3BAFF"/>
</linearGradient>
<linearGradient id="paint3_linear_17_86" x1="104.553" y1="89.0096" x2="129.448" y2="90.1459" gradientUnits="userSpaceOnUse">
<stop stop-color="white"/>
<stop offset="1" stop-color="white" stop-opacity="0"/>
</linearGradient>
<linearGradient id="paint4_linear_17_86" x1="104.553" y1="106.822" x2="120.897" y2="107.312" gradientUnits="userSpaceOnUse">
<stop stop-color="white"/>
<stop offset="1" stop-color="white" stop-opacity="0"/>
</linearGradient>
<linearGradient id="paint5_linear_17_86" x1="104.553" y1="97.9159" x2="144.819" y2="100.899" gradientUnits="userSpaceOnUse">
<stop stop-color="white"/>
<stop offset="1" stop-color="white" stop-opacity="0"/>
</linearGradient>
<linearGradient id="paint6_linear_17_86" x1="182.431" y1="86.2965" x2="196.77" y2="111.133" gradientUnits="userSpaceOnUse">
<stop stop-color="#8231EA"/>
<stop offset="1" stop-color="#CA5AFF"/>
</linearGradient>
</defs>
</svg>
